<svg xmlns="http://www.w3.org/2000/svg" xmlns:xlink="http://www.w3.org/1999/xlink" fill="none" version="1.1" width="28" height="28" viewBox="0 0 28 28"><defs><clipPath id="master_svg0_390_56993"><rect x="0" y="0" width="28" height="28" rx="0"/></clipPath><clipPath id="master_svg1_390_56994"><rect x="4" y="4" width="20" height="20.000001907348633" rx="5.714285850524902"/></clipPath><linearGradient x1="0.10611901432275772" y1="0.9834379553794861" x2="1.0141383376639876" y2="0.702860075736671" id="master_svg2_4_1344"><stop offset="0%" stop-color="#615CED" stop-opacity="0.5"/><stop offset="0%" stop-color="#6964ED" stop-opacity="0.5299999713897705"/><stop offset="0.9999999776482582%" stop-color="#8884F1" stop-opacity="0.6200000047683716"/><stop offset="2.9999999329447746%" stop-color="#A4A2F4" stop-opacity="0.7200000286102295"/><stop offset="3.999999910593033%" stop-color="#BDBBF7" stop-opacity="0.7900000214576721"/><stop offset="5.999999865889549%" stop-color="#D2D0F9" stop-opacity="0.8600000143051147"/><stop offset="7.000000029802322%" stop-color="#E2E1FB" stop-opacity="0.9100000262260437"/><stop offset="9.000000357627869%" stop-color="#EFEFFD" stop-opacity="0.949999988079071"/><stop offset="11.999999731779099%" stop-color="#F8F8FE" stop-opacity="0.9800000190734863"/><stop offset="15.000000596046448%" stop-color="#FDFDFE" stop-opacity="1"/><stop offset="25%" stop-color="#FFFFFF" stop-opacity="1"/></linearGradient><linearGradient x1="0.9915931820869446" y1="0.7900100946426392" x2="0.036213742375408906" y2="-0.03590285259761294" id="master_svg3_4_1341"><stop offset="0%" stop-color="#615CED" stop-opacity="0.5"/><stop offset="0%" stop-color="#6964ED" stop-opacity="0.5299999713897705"/><stop offset="0.9999999776482582%" stop-color="#8884F1" stop-opacity="0.6200000047683716"/><stop offset="2.9999999329447746%" stop-color="#A4A2F4" stop-opacity="0.7200000286102295"/><stop offset="3.999999910593033%" stop-color="#BDBBF7" stop-opacity="0.7900000214576721"/><stop offset="5.999999865889549%" stop-color="#D2D0F9" stop-opacity="0.8600000143051147"/><stop offset="7.000000029802322%" stop-color="#E2E1FB" stop-opacity="0.9100000262260437"/><stop offset="9.000000357627869%" stop-color="#EFEFFD" stop-opacity="0.949999988079071"/><stop offset="11.999999731779099%" stop-color="#F8F8FE" stop-opacity="0.9800000190734863"/><stop offset="15.000000596046448%" stop-color="#FDFDFE" stop-opacity="1"/><stop offset="25%" stop-color="#FFFFFF" stop-opacity="1"/></linearGradient><linearGradient x1="0.5" y1="0" x2="0.5" y2="1" id="master_svg4_4_1338"><stop offset="0%" stop-color="#615CED" stop-opacity="0.5"/><stop offset="0%" stop-color="#6964ED" stop-opacity="0.5299999713897705"/><stop offset="0.9999999776482582%" stop-color="#8884F1" stop-opacity="0.6200000047683716"/><stop offset="2.9999999329447746%" stop-color="#A4A2F4" stop-opacity="0.7200000286102295"/><stop offset="3.999999910593033%" stop-color="#BDBBF7" stop-opacity="0.7900000214576721"/><stop offset="5.999999865889549%" stop-color="#D2D0F9" stop-opacity="0.8600000143051147"/><stop offset="7.000000029802322%" stop-color="#E2E1FB" stop-opacity="0.9100000262260437"/><stop offset="9.000000357627869%" stop-color="#EFEFFD" stop-opacity="0.949999988079071"/><stop offset="11.999999731779099%" stop-color="#F8F8FE" stop-opacity="0.9800000190734863"/><stop offset="15.000000596046448%" stop-color="#FDFDFE" stop-opacity="1"/><stop offset="25%" stop-color="#FFFFFF" stop-opacity="1"/></linearGradient><linearGradient x1="0.9286861419677734" y1="0.2500119209289551" x2="0.07121457251279198" y2="0.7499320775639444" id="master_svg5_4_1347"><stop offset="0%" stop-color="#615CED" stop-opacity="1"/><stop offset="17.000000178813934%" stop-color="#6156EC" stop-opacity="1"/><stop offset="37.99999952316284%" stop-color="#6147E9" stop-opacity="1"/><stop offset="61.000001430511475%" stop-color="#622FE4" stop-opacity="1"/><stop offset="62.00000047683716%" stop-color="#632DE4" stop-opacity="1"/></linearGradient><linearGradient x1="0" y1="0.49997615814208984" x2="0.9998583197593689" y2="0.49997615814208984" id="master_svg6_4_1350"><stop offset="0%" stop-color="#615CED" stop-opacity="1"/><stop offset="3.999999910593033%" stop-color="#615CED" stop-opacity="0.9599999785423279"/><stop offset="9.000000357627869%" stop-color="#615CED" stop-opacity="0.8600000143051147"/><stop offset="17.000000178813934%" stop-color="#615CED" stop-opacity="0.6899999976158142"/><stop offset="25%" stop-color="#615CED" stop-opacity="0.46000000834465027"/><stop offset="34.99999940395355%" stop-color="#615CED" stop-opacity="0.1599999964237213"/><stop offset="40.00000059604645%" stop-color="#615CED" stop-opacity="0"/></linearGradient><linearGradient x1="0.7498819231987" y1="0.06276530027389526" x2="0.249967982229133" y2="0.9371822139618853" id="master_svg7_4_1333"><stop offset="0%" stop-color="#A7A5F6" stop-opacity="1"/><stop offset="5.000000074505806%" stop-color="#9895F4" stop-opacity="0.7900000214576721"/><stop offset="11.999999731779099%" stop-color="#8784F1" stop-opacity="0.550000011920929"/><stop offset="18.99999976158142%" stop-color="#7975F0" stop-opacity="0.3499999940395355"/><stop offset="25%" stop-color="#6F6AEE" stop-opacity="0.20000000298023224"/><stop offset="31.00000023841858%" stop-color="#6762ED" stop-opacity="0.09000000357627869"/><stop offset="36.000001430511475%" stop-color="#625DED" stop-opacity="0.019999999552965164"/><stop offset="40.00000059604645%" stop-color="#615CED" stop-opacity="0"/></linearGradient></defs><g clip-path="url(#master_svg0_390_56993)"><g clip-path="url(#master_svg1_390_56994)"><g><g><g><path d="M12.055724722137452,7.196986675262451L13.028084722137452,8.897866675262451L12.055724722137452,10.598736675262451L19.83465472213745,10.598736675262451L18.862284722137453,12.29892667526245L11.27769472213745,12.29892667526245L10.207484722137451,10.428376675262452L12.055724722137452,7.196986675262451Z" fill="#FFFFFF" fill-opacity="1"/></g><g><path d="M8.166224956512451,10.598353862762451L10.110954956512451,10.598353862762451L13.902584956512452,17.23217386276245L12.833044956512452,19.10341386276245L9.138591956512451,19.10204386276245L10.110954956512451,17.40117386276245L12.05569495651245,17.40185386276245L8.166224956512451,10.598353862762451Z" fill="#FFFFFF" fill-opacity="1"/></g><g><path d="M13.027431011199951,19.101907612762453L13.99979701119995,20.80277761276245L17.889261011199952,13.99995761276245L18.86095101119995,15.700837612762452L20.80636101119995,15.700837612762452L18.959471011199952,12.469447612762451L16.82040101119995,12.470129198762452L13.027431011199951,19.101907612762453Z" fill="#FFFFFF" fill-opacity="1"/></g><g><path d="M12.055724722137452,7.196986675262451L13.028084722137452,8.897866675262451L12.055724722137452,10.598736675262451L19.83465472213745,10.598736675262451L18.862284722137453,12.29892667526245L11.27769472213745,12.29892667526245L10.207484722137451,10.428376675262452L12.055724722137452,7.196986675262451Z" fill="url(#master_svg2_4_1344)" fill-opacity="1"/></g><g><path d="M9.138591956512451,19.10253214401245L10.110954956512451,17.40166214401245L12.05569495651245,17.40166214401245L8.166224956512451,10.598842144012451L10.110284956512452,10.598842144012451L13.902584956512452,17.231982144012452L12.833044956512452,19.103212144012453L9.138591956512451,19.10253214401245Z" fill="url(#master_svg3_4_1341)" fill-opacity="1"/></g><g><path d="M20.80709343307495,15.700837612762452L18.86168343307495,15.700837612762452L17.889993433074952,13.99995761276245L14.000530433074951,20.803467612762454L13.028163433074951,19.10326761276245L16.820463433074952,12.470129198762452L18.959533433074952,12.469447612762451L20.80709343307495,15.700837612762452Z" fill="url(#master_svg4_4_1338)" fill-opacity="1"/></g><g><path d="M21.09784292526245,15.530512925262451L19.445242925262452,12.639842925262451L19.25094292526245,12.299122925262452L20.12614292526245,10.769292925262452C20.15654292526245,10.716822925262452,20.17134292526245,10.65821292526245,20.17134292526245,10.598932925262451C20.17134292526245,10.539642925262452,20.15654292526245,10.48104292526245,20.12614292526245,10.42857292526245L19.15374292526245,8.72769292526245C19.123442925262452,8.675222925262451,19.080842925262452,8.63297292526245,19.03024292526245,8.602992925262452C18.980342925262452,8.573692925262451,18.921642925262454,8.55733292526245,18.86154292526245,8.55733292526245L15.166452925262451,8.55733292526245L14.291252925262452,7.0268219252624515C14.231202925262451,6.921879825262451,14.119862925262451,6.856461599262452,13.999752925262452,6.856461599262452L12.055012925262451,6.856461599262452C11.99496292526245,6.856461599262452,11.93693292526245,6.872816125262451,11.88699292526245,6.902118125262451C11.836382925262452,6.931420025262451,11.793872925262452,6.974350925262451,11.76351292526245,7.0268219252624515L10.110282925262451,9.918172925262452L9.915942925262451,10.257532925262451L8.165552925262451,10.257532925262451C8.105492925262451,10.257532925262451,8.047462925262451,10.273882925262452,7.997532925262451,10.303182925262451C7.946922925262451,10.332492925262452,7.903732925262451,10.375422925262452,7.874042925262451,10.427892925262451L6.902353625262451,12.128762925262452C6.871988225262451,12.181232925262451,6.857142925262451,12.239842925262451,6.857142925262451,12.299122925262452C6.857142925262451,12.358412925262451,6.871988225262451,12.417012925262451,6.902353625262451,12.46948292526245L8.749912925262452,15.700872925262452L7.874722925262451,17.231342925262453C7.844354925262451,17.28384292526245,7.829508925262451,17.342442925262453,7.829508925262451,17.401742925262454C7.829508925262451,17.46104292526245,7.844354925262451,17.519642925262453,7.874722925262451,17.57214292526245L8.847082925262452,19.272942925262452C8.877452925262451,19.32544292526245,8.919962925262451,19.36774292526245,8.970572925262452,19.397642925262453C9.021182925262451,19.426942925262452,9.079212925262452,19.44334292526245,9.139272925262452,19.44334292526245L12.833722925262451,19.44334292526245L13.708922925262451,20.973842925262453C13.768972925262451,21.07884292526245,13.880312925262452,21.14354292526245,14.000422925262452,21.144242925262454L15.945162925262451,21.144242925262454C16.00521292526245,21.144242925262454,16.06324292526245,21.12784292526245,16.11385292526245,21.09854292526245C16.16379292526245,21.06924292526245,16.206972925262452,21.02634292526245,16.237342925262453,20.973842925262453L18.084942925262453,17.742442925262452L19.835342925262452,17.742442925262452C19.89534292526245,17.742442925262452,19.95334292526245,17.72614292526245,20.004042925262453,17.69684292526245C20.05394292526245,17.667542925262453,20.097142925262453,17.624542925262453,20.12744292526245,17.57214292526245L21.09984292526245,15.87123292526245C21.13024292526245,15.818762925262451,21.14504292526245,15.760152925262451,21.14504292526245,15.700872925262452C21.14504292526245,15.641582925262451,21.13024292526245,15.582982925262451,21.09984292526245,15.530512925262451L21.09784292526245,15.530512925262451ZM12.055692925262452,7.197181925262451L13.02806292526245,8.898052925262451L12.055692925262452,10.59825292526245L19.83464292526245,10.59825292526245L18.86224292526245,12.298442925262451L11.277662925262451,12.298442925262451L10.207452925262452,10.427892925262451L12.055692925262452,7.197181925262451ZM12.83304292526245,19.103342925262453L9.13859292526245,19.10194292526245L10.110962925262452,17.401042925262452L12.055692925262452,17.401042925262452L8.166222925262451,10.59825292526245L10.110962925262452,10.59825292526245L11.08332292526245,12.299122925262452L13.90258292526245,17.23204292526245L12.833722925262451,19.103342925262453L12.83304292526245,19.103342925262453ZM18.86094292526245,15.700872925262452L17.88924292526245,14.00000292526245L13.999752925262452,20.802842925262453L13.027382925262451,19.10194292526245L14.000422925262452,17.401742925262454L16.82035292526245,12.47016292526245L18.95944292526245,12.47016292526245L20.80634292526245,15.700872925262452L18.86094292526245,15.700872925262452Z" fill="url(#master_svg5_4_1347)" fill-opacity="1"/></g><g><path d="M21.09784292526245,15.530512925262451L19.445242925262452,12.639842925262451L19.25094292526245,12.299122925262452L20.12614292526245,10.769292925262452C20.15654292526245,10.716822925262452,20.17134292526245,10.65821292526245,20.17134292526245,10.598932925262451C20.17134292526245,10.539642925262452,20.15654292526245,10.48104292526245,20.12614292526245,10.42857292526245L19.15374292526245,8.72769292526245C19.123442925262452,8.675222925262451,19.080842925262452,8.63297292526245,19.03024292526245,8.602992925262452C18.980342925262452,8.573692925262451,18.921642925262454,8.55733292526245,18.86154292526245,8.55733292526245L15.166452925262451,8.55733292526245L14.291252925262452,7.0268219252624515C14.231202925262451,6.921879825262451,14.119862925262451,6.856461599262452,13.999752925262452,6.856461599262452L12.055012925262451,6.856461599262452C11.99496292526245,6.856461599262452,11.93693292526245,6.872816125262451,11.88699292526245,6.902118125262451C11.836382925262452,6.931420025262451,11.793872925262452,6.974350925262451,11.76351292526245,7.0268219252624515L10.110282925262451,9.918172925262452L9.915942925262451,10.257532925262451L8.165552925262451,10.257532925262451C8.105492925262451,10.257532925262451,8.047462925262451,10.273882925262452,7.997532925262451,10.303182925262451C7.946922925262451,10.332492925262452,7.903732925262451,10.375422925262452,7.874042925262451,10.427892925262451L6.902353625262451,12.128762925262452C6.871988225262451,12.181232925262451,6.857142925262451,12.239842925262451,6.857142925262451,12.299122925262452C6.857142925262451,12.358412925262451,6.871988225262451,12.417012925262451,6.902353625262451,12.46948292526245L8.749912925262452,15.700872925262452L7.874722925262451,17.231342925262453C7.844354925262451,17.28384292526245,7.829508925262451,17.342442925262453,7.829508925262451,17.401742925262454C7.829508925262451,17.46104292526245,7.844354925262451,17.519642925262453,7.874722925262451,17.57214292526245L8.847082925262452,19.272942925262452C8.877452925262451,19.32544292526245,8.919962925262451,19.36774292526245,8.970572925262452,19.397642925262453C9.021182925262451,19.426942925262452,9.079212925262452,19.44334292526245,9.139272925262452,19.44334292526245L12.833722925262451,19.44334292526245L13.708922925262451,20.973842925262453C13.768972925262451,21.07884292526245,13.880312925262452,21.14354292526245,14.000422925262452,21.144242925262454L15.945162925262451,21.144242925262454C16.00521292526245,21.144242925262454,16.06324292526245,21.12784292526245,16.11385292526245,21.09854292526245C16.16379292526245,21.06924292526245,16.206972925262452,21.02634292526245,16.237342925262453,20.973842925262453L18.084942925262453,17.742442925262452L19.835342925262452,17.742442925262452C19.89534292526245,17.742442925262452,19.95334292526245,17.72614292526245,20.004042925262453,17.69684292526245C20.05394292526245,17.667542925262453,20.097142925262453,17.624542925262453,20.12744292526245,17.57214292526245L21.09984292526245,15.87123292526245C21.13024292526245,15.818762925262451,21.14504292526245,15.760152925262451,21.14504292526245,15.700872925262452C21.14504292526245,15.641582925262451,21.13024292526245,15.582982925262451,21.09984292526245,15.530512925262451L21.09784292526245,15.530512925262451ZM12.055692925262452,7.197181925262451L13.02806292526245,8.898052925262451L12.055692925262452,10.59825292526245L19.83464292526245,10.59825292526245L18.86224292526245,12.298442925262451L11.277662925262451,12.298442925262451L10.207452925262452,10.427892925262451L12.055692925262452,7.197181925262451ZM12.83304292526245,19.103342925262453L9.13859292526245,19.10194292526245L10.110962925262452,17.401042925262452L12.055692925262452,17.401042925262452L8.166222925262451,10.59825292526245L10.110962925262452,10.59825292526245L11.08332292526245,12.299122925262452L13.90258292526245,17.23204292526245L12.833722925262451,19.103342925262453L12.83304292526245,19.103342925262453ZM18.86094292526245,15.700872925262452L17.88924292526245,14.00000292526245L13.999752925262452,20.802842925262453L13.027382925262451,19.10194292526245L14.000422925262452,17.401742925262454L16.82035292526245,12.47016292526245L18.95944292526245,12.47016292526245L20.80634292526245,15.700872925262452L18.86094292526245,15.700872925262452Z" fill="url(#master_svg6_4_1350)" fill-opacity="1"/></g><g><path d="M21.09784292526245,15.530512925262451L19.445242925262452,12.639842925262451L19.25094292526245,12.299122925262452L20.12614292526245,10.769292925262452C20.15654292526245,10.716822925262452,20.17134292526245,10.65821292526245,20.17134292526245,10.598932925262451C20.17134292526245,10.539642925262452,20.15654292526245,10.48104292526245,20.12614292526245,10.42857292526245L19.15374292526245,8.72769292526245C19.123442925262452,8.675222925262451,19.080842925262452,8.63297292526245,19.03024292526245,8.602992925262452C18.980342925262452,8.573692925262451,18.921642925262454,8.55733292526245,18.86154292526245,8.55733292526245L15.166452925262451,8.55733292526245L14.291252925262452,7.0268219252624515C14.231202925262451,6.921879825262451,14.119862925262451,6.856461599262452,13.999752925262452,6.856461599262452L12.055012925262451,6.856461599262452C11.99496292526245,6.856461599262452,11.93693292526245,6.872816125262451,11.88699292526245,6.902118125262451C11.836382925262452,6.931420025262451,11.793872925262452,6.974350925262451,11.76351292526245,7.0268219252624515L10.110282925262451,9.918172925262452L9.915942925262451,10.257532925262451L8.165552925262451,10.257532925262451C8.105492925262451,10.257532925262451,8.047462925262451,10.273882925262452,7.997532925262451,10.303182925262451C7.946922925262451,10.332492925262452,7.903732925262451,10.375422925262452,7.874042925262451,10.427892925262451L6.902353625262451,12.128762925262452C6.871988225262451,12.181232925262451,6.857142925262451,12.239842925262451,6.857142925262451,12.299122925262452C6.857142925262451,12.358412925262451,6.871988225262451,12.417012925262451,6.902353625262451,12.46948292526245L8.749912925262452,15.700872925262452L7.874722925262451,17.231342925262453C7.844354925262451,17.28384292526245,7.829508925262451,17.342442925262453,7.829508925262451,17.401742925262454C7.829508925262451,17.46104292526245,7.844354925262451,17.519642925262453,7.874722925262451,17.57214292526245L8.847082925262452,19.272942925262452C8.877452925262451,19.32544292526245,8.919962925262451,19.36774292526245,8.970572925262452,19.397642925262453C9.021182925262451,19.426942925262452,9.079212925262452,19.44334292526245,9.139272925262452,19.44334292526245L12.833722925262451,19.44334292526245L13.708922925262451,20.973842925262453C13.768972925262451,21.07884292526245,13.880312925262452,21.14354292526245,14.000422925262452,21.144242925262454L15.945162925262451,21.144242925262454C16.00521292526245,21.144242925262454,16.06324292526245,21.12784292526245,16.11385292526245,21.09854292526245C16.16379292526245,21.06924292526245,16.206972925262452,21.02634292526245,16.237342925262453,20.973842925262453L18.084942925262453,17.742442925262452L19.835342925262452,17.742442925262452C19.89534292526245,17.742442925262452,19.95334292526245,17.72614292526245,20.004042925262453,17.69684292526245C20.05394292526245,17.667542925262453,20.097142925262453,17.624542925262453,20.12744292526245,17.57214292526245L21.09984292526245,15.87123292526245C21.13024292526245,15.818762925262451,21.14504292526245,15.760152925262451,21.14504292526245,15.700872925262452C21.14504292526245,15.641582925262451,21.13024292526245,15.582982925262451,21.09984292526245,15.530512925262451L21.09784292526245,15.530512925262451ZM12.055692925262452,7.197181925262451L13.02806292526245,8.898052925262451L12.055692925262452,10.59825292526245L19.83464292526245,10.59825292526245L18.86224292526245,12.298442925262451L11.277662925262451,12.298442925262451L10.207452925262452,10.427892925262451L12.055692925262452,7.197181925262451ZM12.83304292526245,19.103342925262453L9.13859292526245,19.10194292526245L10.110962925262452,17.401042925262452L12.055692925262452,17.401042925262452L8.166222925262451,10.59825292526245L10.110962925262452,10.59825292526245L11.08332292526245,12.299122925262452L13.90258292526245,17.23204292526245L12.833722925262451,19.103342925262453L12.83304292526245,19.103342925262453ZM18.86094292526245,15.700872925262452L17.88924292526245,14.00000292526245L13.999752925262452,20.802842925262453L13.027382925262451,19.10194292526245L14.000422925262452,17.401742925262454L16.82035292526245,12.47016292526245L18.95944292526245,12.47016292526245L20.80634292526245,15.700872925262452L18.86094292526245,15.700872925262452Z" fill="url(#master_svg7_4_1333)" fill-opacity="1"/></g></g></g></g></g></svg>